%TF.GenerationSoftware,KiCad,Pcbnew,5.1.7-a382d34a8~87~ubuntu18.04.1*%
%TF.CreationDate,2022-01-02T15:57:33-08:00*%
%TF.ProjectId,basic_led,62617369-635f-46c6-9564-2e6b69636164,rev?*%
%TF.SameCoordinates,Original*%
%TF.FileFunction,Legend,Top*%
%TF.FilePolarity,Positive*%
%FSLAX46Y46*%
G04 Gerber Fmt 4.6, Leading zero omitted, Abs format (unit mm)*
G04 Created by KiCad (PCBNEW 5.1.7-a382d34a8~87~ubuntu18.04.1) date 2022-01-02 15:57:33*
%MOMM*%
%LPD*%
G01*
G04 APERTURE LIST*
%ADD10C,0.250000*%
%ADD11C,0.150000*%
%ADD12C,0.050000*%
%ADD13C,0.120000*%
%ADD14C,0.160000*%
G04 APERTURE END LIST*
D10*
X65000000Y-60000000D02*
G75*
G03*
X65000000Y-60000000I-2300000J0D01*
G01*
X65700000Y-60000000D02*
G75*
G03*
X65700000Y-60000000I-3000000J0D01*
G01*
D11*
%TO.C,J2*%
X75275000Y-63000000D02*
X75275000Y-60000000D01*
X75275000Y-60000000D02*
X75275000Y-57000000D01*
X75275000Y-63000000D02*
X70925000Y-63000000D01*
X70925000Y-63000000D02*
X70925000Y-57000000D01*
X70925000Y-57000000D02*
X75275000Y-57000000D01*
%TO.C,J1*%
X50125000Y-57000000D02*
X50125000Y-60000000D01*
X50125000Y-60000000D02*
X50125000Y-63000000D01*
X50125000Y-57000000D02*
X54475000Y-57000000D01*
X54475000Y-57000000D02*
X54475000Y-63000000D01*
X54475000Y-63000000D02*
X50125000Y-63000000D01*
D12*
%TO.C,M4*%
X54440000Y-67460000D02*
G75*
G03*
X54440000Y-67460000I-1900000J0D01*
G01*
D11*
X54990000Y-67460000D02*
G75*
G03*
X54990000Y-67460000I-2450000J0D01*
G01*
D12*
%TO.C,M3*%
X74760000Y-67460000D02*
G75*
G03*
X74760000Y-67460000I-1900000J0D01*
G01*
D11*
X75310000Y-67460000D02*
G75*
G03*
X75310000Y-67460000I-2450000J0D01*
G01*
D12*
%TO.C,M2*%
X74760000Y-52540000D02*
G75*
G03*
X74760000Y-52540000I-1900000J0D01*
G01*
D11*
X75310000Y-52540000D02*
G75*
G03*
X75310000Y-52540000I-2450000J0D01*
G01*
D12*
%TO.C,M1*%
X54440000Y-52540000D02*
G75*
G03*
X54440000Y-52540000I-1900000J0D01*
G01*
D11*
X54990000Y-52540000D02*
G75*
G03*
X54990000Y-52540000I-2450000J0D01*
G01*
D13*
%TO.C,D1*%
X61965000Y-58515000D02*
X61965000Y-60800000D01*
X63435000Y-58515000D02*
X61965000Y-58515000D01*
X63435000Y-60800000D02*
X63435000Y-58515000D01*
%TO.C,R1*%
X62937258Y-54522500D02*
X62462742Y-54522500D01*
X62937258Y-53477500D02*
X62462742Y-53477500D01*
%TO.C,J2*%
D14*
X74553333Y-63201904D02*
X74553333Y-63773333D01*
X74515238Y-63887619D01*
X74439047Y-63963809D01*
X74324761Y-64001904D01*
X74248571Y-64001904D01*
X74896190Y-63278095D02*
X74934285Y-63240000D01*
X75010476Y-63201904D01*
X75200952Y-63201904D01*
X75277142Y-63240000D01*
X75315238Y-63278095D01*
X75353333Y-63354285D01*
X75353333Y-63430476D01*
X75315238Y-63544761D01*
X74858095Y-64001904D01*
X75353333Y-64001904D01*
%TO.C,J1*%
X50313333Y-63201904D02*
X50313333Y-63773333D01*
X50275238Y-63887619D01*
X50199047Y-63963809D01*
X50084761Y-64001904D01*
X50008571Y-64001904D01*
X51113333Y-64001904D02*
X50656190Y-64001904D01*
X50884761Y-64001904D02*
X50884761Y-63201904D01*
X50808571Y-63316190D01*
X50732380Y-63392380D01*
X50656190Y-63430476D01*
%TO.C,D1*%
X61761904Y-60590476D02*
X60961904Y-60590476D01*
X60961904Y-60400000D01*
X61000000Y-60285714D01*
X61076190Y-60209523D01*
X61152380Y-60171428D01*
X61304761Y-60133333D01*
X61419047Y-60133333D01*
X61571428Y-60171428D01*
X61647619Y-60209523D01*
X61723809Y-60285714D01*
X61761904Y-60400000D01*
X61761904Y-60590476D01*
X61761904Y-59371428D02*
X61761904Y-59828571D01*
X61761904Y-59600000D02*
X60961904Y-59600000D01*
X61076190Y-59676190D01*
X61152380Y-59752380D01*
X61190476Y-59828571D01*
%TO.C,R1*%
X62566666Y-52961904D02*
X62300000Y-52580952D01*
X62109523Y-52961904D02*
X62109523Y-52161904D01*
X62414285Y-52161904D01*
X62490476Y-52200000D01*
X62528571Y-52238095D01*
X62566666Y-52314285D01*
X62566666Y-52428571D01*
X62528571Y-52504761D01*
X62490476Y-52542857D01*
X62414285Y-52580952D01*
X62109523Y-52580952D01*
X63328571Y-52961904D02*
X62871428Y-52961904D01*
X63100000Y-52961904D02*
X63100000Y-52161904D01*
X63023809Y-52276190D01*
X62947619Y-52352380D01*
X62871428Y-52390476D01*
%TD*%
M02*
