%TF.GenerationSoftware,KiCad,Pcbnew,7.0.2-6a45011f42~172~ubuntu22.04.1*%
%TF.CreationDate,2023-09-06T17:33:04-07:00*%
%TF.ProjectId,basic_led,62617369-635f-46c6-9564-2e6b69636164,rev?*%
%TF.SameCoordinates,Original*%
%TF.FileFunction,Legend,Top*%
%TF.FilePolarity,Positive*%
%FSLAX46Y46*%
G04 Gerber Fmt 4.6, Leading zero omitted, Abs format (unit mm)*
G04 Created by KiCad (PCBNEW 7.0.2-6a45011f42~172~ubuntu22.04.1) date 2023-09-06 17:33:04*
%MOMM*%
%LPD*%
G01*
G04 APERTURE LIST*
%ADD10C,0.250000*%
%ADD11C,0.150000*%
%ADD12C,0.160000*%
%ADD13C,0.050000*%
%ADD14C,0.120000*%
G04 APERTURE END LIST*
D10*
X65700000Y-60000000D02*
G75*
G03*
X65700000Y-60000000I-3000000J0D01*
G01*
D11*
%TO.C,D1*%
X61961905Y-64482619D02*
X61961905Y-63482619D01*
X61961905Y-63482619D02*
X62200000Y-63482619D01*
X62200000Y-63482619D02*
X62342857Y-63530238D01*
X62342857Y-63530238D02*
X62438095Y-63625476D01*
X62438095Y-63625476D02*
X62485714Y-63720714D01*
X62485714Y-63720714D02*
X62533333Y-63911190D01*
X62533333Y-63911190D02*
X62533333Y-64054047D01*
X62533333Y-64054047D02*
X62485714Y-64244523D01*
X62485714Y-64244523D02*
X62438095Y-64339761D01*
X62438095Y-64339761D02*
X62342857Y-64435000D01*
X62342857Y-64435000D02*
X62200000Y-64482619D01*
X62200000Y-64482619D02*
X61961905Y-64482619D01*
X63485714Y-64482619D02*
X62914286Y-64482619D01*
X63200000Y-64482619D02*
X63200000Y-63482619D01*
X63200000Y-63482619D02*
X63104762Y-63625476D01*
X63104762Y-63625476D02*
X63009524Y-63720714D01*
X63009524Y-63720714D02*
X62914286Y-63768333D01*
D12*
%TO.C,J1*%
X50813333Y-63210095D02*
X50813333Y-63781523D01*
X50813333Y-63781523D02*
X50775238Y-63895809D01*
X50775238Y-63895809D02*
X50699047Y-63972000D01*
X50699047Y-63972000D02*
X50584762Y-64010095D01*
X50584762Y-64010095D02*
X50508571Y-64010095D01*
X51613333Y-64010095D02*
X51156190Y-64010095D01*
X51384762Y-64010095D02*
X51384762Y-63210095D01*
X51384762Y-63210095D02*
X51308571Y-63324380D01*
X51308571Y-63324380D02*
X51232381Y-63400571D01*
X51232381Y-63400571D02*
X51156190Y-63438666D01*
%TO.C,J2*%
X74053333Y-63210095D02*
X74053333Y-63781523D01*
X74053333Y-63781523D02*
X74015238Y-63895809D01*
X74015238Y-63895809D02*
X73939047Y-63972000D01*
X73939047Y-63972000D02*
X73824762Y-64010095D01*
X73824762Y-64010095D02*
X73748571Y-64010095D01*
X74396190Y-63286285D02*
X74434286Y-63248190D01*
X74434286Y-63248190D02*
X74510476Y-63210095D01*
X74510476Y-63210095D02*
X74700952Y-63210095D01*
X74700952Y-63210095D02*
X74777143Y-63248190D01*
X74777143Y-63248190D02*
X74815238Y-63286285D01*
X74815238Y-63286285D02*
X74853333Y-63362476D01*
X74853333Y-63362476D02*
X74853333Y-63438666D01*
X74853333Y-63438666D02*
X74815238Y-63552952D01*
X74815238Y-63552952D02*
X74358095Y-64010095D01*
X74358095Y-64010095D02*
X74853333Y-64010095D01*
D13*
%TO.C,M1*%
X54440000Y-52540000D02*
G75*
G03*
X54440000Y-52540000I-1900000J0D01*
G01*
D11*
X54990000Y-52540000D02*
G75*
G03*
X54990000Y-52540000I-2450000J0D01*
G01*
D13*
%TO.C,M2*%
X74760000Y-52540000D02*
G75*
G03*
X74760000Y-52540000I-1900000J0D01*
G01*
D11*
X75310000Y-52540000D02*
G75*
G03*
X75310000Y-52540000I-2450000J0D01*
G01*
D13*
%TO.C,M3*%
X74760000Y-67460000D02*
G75*
G03*
X74760000Y-67460000I-1900000J0D01*
G01*
D11*
X75310000Y-67460000D02*
G75*
G03*
X75310000Y-67460000I-2450000J0D01*
G01*
D13*
%TO.C,M4*%
X54440000Y-67460000D02*
G75*
G03*
X54440000Y-67460000I-1900000J0D01*
G01*
D11*
X54990000Y-67460000D02*
G75*
G03*
X54990000Y-67460000I-2450000J0D01*
G01*
D14*
%TO.C,D1*%
X63936000Y-58440000D02*
X63780000Y-58440000D01*
X61620000Y-58440000D02*
X61464000Y-58440000D01*
X63778608Y-61672334D02*
G75*
G03*
X63935515Y-58440001I-1078608J1672334D01*
G01*
X63779836Y-61041129D02*
G75*
G03*
X63779999Y-58959040I-1079836J1041129D01*
G01*
X61620001Y-58959040D02*
G75*
G03*
X61620164Y-61041129I1079999J-1040960D01*
G01*
X61464485Y-58440001D02*
G75*
G03*
X61621392Y-61672334I1235515J-1559999D01*
G01*
D11*
%TO.C,J1*%
X54475000Y-57000000D02*
X54475000Y-63000000D01*
X50125000Y-57000000D02*
X54475000Y-57000000D01*
X50125000Y-57000000D02*
X50125000Y-60000000D01*
X50125000Y-60000000D02*
X50125000Y-63000000D01*
X54475000Y-63000000D02*
X50125000Y-63000000D01*
%TO.C,J2*%
X70925000Y-57000000D02*
X75275000Y-57000000D01*
X75275000Y-60000000D02*
X75275000Y-57000000D01*
X75275000Y-63000000D02*
X75275000Y-60000000D01*
X75275000Y-63000000D02*
X70925000Y-63000000D01*
X70925000Y-63000000D02*
X70925000Y-57000000D01*
%TD*%
M02*
