%TF.GenerationSoftware,KiCad,Pcbnew,7.0.2-6a45011f42~172~ubuntu22.04.1*%
%TF.CreationDate,2023-09-06T17:33:04-07:00*%
%TF.ProjectId,basic_led,62617369-635f-46c6-9564-2e6b69636164,rev?*%
%TF.SameCoordinates,Original*%
%TF.FileFunction,Legend,Bot*%
%TF.FilePolarity,Positive*%
%FSLAX46Y46*%
G04 Gerber Fmt 4.6, Leading zero omitted, Abs format (unit mm)*
G04 Created by KiCad (PCBNEW 7.0.2-6a45011f42~172~ubuntu22.04.1) date 2023-09-06 17:33:04*
%MOMM*%
%LPD*%
G01*
G04 APERTURE LIST*
%ADD10C,0.150000*%
%ADD11C,0.120000*%
G04 APERTURE END LIST*
D10*
X69247619Y-63418809D02*
X69104762Y-63466428D01*
X69104762Y-63466428D02*
X69057143Y-63514047D01*
X69057143Y-63514047D02*
X69009524Y-63609285D01*
X69009524Y-63609285D02*
X69009524Y-63752142D01*
X69009524Y-63752142D02*
X69057143Y-63847380D01*
X69057143Y-63847380D02*
X69104762Y-63895000D01*
X69104762Y-63895000D02*
X69200000Y-63942619D01*
X69200000Y-63942619D02*
X69580952Y-63942619D01*
X69580952Y-63942619D02*
X69580952Y-62942619D01*
X69580952Y-62942619D02*
X69247619Y-62942619D01*
X69247619Y-62942619D02*
X69152381Y-62990238D01*
X69152381Y-62990238D02*
X69104762Y-63037857D01*
X69104762Y-63037857D02*
X69057143Y-63133095D01*
X69057143Y-63133095D02*
X69057143Y-63228333D01*
X69057143Y-63228333D02*
X69104762Y-63323571D01*
X69104762Y-63323571D02*
X69152381Y-63371190D01*
X69152381Y-63371190D02*
X69247619Y-63418809D01*
X69247619Y-63418809D02*
X69580952Y-63418809D01*
X68152381Y-63942619D02*
X68152381Y-63418809D01*
X68152381Y-63418809D02*
X68200000Y-63323571D01*
X68200000Y-63323571D02*
X68295238Y-63275952D01*
X68295238Y-63275952D02*
X68485714Y-63275952D01*
X68485714Y-63275952D02*
X68580952Y-63323571D01*
X68152381Y-63895000D02*
X68247619Y-63942619D01*
X68247619Y-63942619D02*
X68485714Y-63942619D01*
X68485714Y-63942619D02*
X68580952Y-63895000D01*
X68580952Y-63895000D02*
X68628571Y-63799761D01*
X68628571Y-63799761D02*
X68628571Y-63704523D01*
X68628571Y-63704523D02*
X68580952Y-63609285D01*
X68580952Y-63609285D02*
X68485714Y-63561666D01*
X68485714Y-63561666D02*
X68247619Y-63561666D01*
X68247619Y-63561666D02*
X68152381Y-63514047D01*
X67723809Y-63895000D02*
X67628571Y-63942619D01*
X67628571Y-63942619D02*
X67438095Y-63942619D01*
X67438095Y-63942619D02*
X67342857Y-63895000D01*
X67342857Y-63895000D02*
X67295238Y-63799761D01*
X67295238Y-63799761D02*
X67295238Y-63752142D01*
X67295238Y-63752142D02*
X67342857Y-63656904D01*
X67342857Y-63656904D02*
X67438095Y-63609285D01*
X67438095Y-63609285D02*
X67580952Y-63609285D01*
X67580952Y-63609285D02*
X67676190Y-63561666D01*
X67676190Y-63561666D02*
X67723809Y-63466428D01*
X67723809Y-63466428D02*
X67723809Y-63418809D01*
X67723809Y-63418809D02*
X67676190Y-63323571D01*
X67676190Y-63323571D02*
X67580952Y-63275952D01*
X67580952Y-63275952D02*
X67438095Y-63275952D01*
X67438095Y-63275952D02*
X67342857Y-63323571D01*
X66866666Y-63942619D02*
X66866666Y-63275952D01*
X66866666Y-62942619D02*
X66914285Y-62990238D01*
X66914285Y-62990238D02*
X66866666Y-63037857D01*
X66866666Y-63037857D02*
X66819047Y-62990238D01*
X66819047Y-62990238D02*
X66866666Y-62942619D01*
X66866666Y-62942619D02*
X66866666Y-63037857D01*
X65961905Y-63895000D02*
X66057143Y-63942619D01*
X66057143Y-63942619D02*
X66247619Y-63942619D01*
X66247619Y-63942619D02*
X66342857Y-63895000D01*
X66342857Y-63895000D02*
X66390476Y-63847380D01*
X66390476Y-63847380D02*
X66438095Y-63752142D01*
X66438095Y-63752142D02*
X66438095Y-63466428D01*
X66438095Y-63466428D02*
X66390476Y-63371190D01*
X66390476Y-63371190D02*
X66342857Y-63323571D01*
X66342857Y-63323571D02*
X66247619Y-63275952D01*
X66247619Y-63275952D02*
X66057143Y-63275952D01*
X66057143Y-63275952D02*
X65961905Y-63323571D01*
X64295238Y-63942619D02*
X64771428Y-63942619D01*
X64771428Y-63942619D02*
X64771428Y-62942619D01*
X63961904Y-63418809D02*
X63628571Y-63418809D01*
X63485714Y-63942619D02*
X63961904Y-63942619D01*
X63961904Y-63942619D02*
X63961904Y-62942619D01*
X63961904Y-62942619D02*
X63485714Y-62942619D01*
X63057142Y-63942619D02*
X63057142Y-62942619D01*
X63057142Y-62942619D02*
X62819047Y-62942619D01*
X62819047Y-62942619D02*
X62676190Y-62990238D01*
X62676190Y-62990238D02*
X62580952Y-63085476D01*
X62580952Y-63085476D02*
X62533333Y-63180714D01*
X62533333Y-63180714D02*
X62485714Y-63371190D01*
X62485714Y-63371190D02*
X62485714Y-63514047D01*
X62485714Y-63514047D02*
X62533333Y-63704523D01*
X62533333Y-63704523D02*
X62580952Y-63799761D01*
X62580952Y-63799761D02*
X62676190Y-63895000D01*
X62676190Y-63895000D02*
X62819047Y-63942619D01*
X62819047Y-63942619D02*
X63057142Y-63942619D01*
X61438094Y-62942619D02*
X61104761Y-63942619D01*
X61104761Y-63942619D02*
X60771428Y-62942619D01*
X60247618Y-62942619D02*
X60152380Y-62942619D01*
X60152380Y-62942619D02*
X60057142Y-62990238D01*
X60057142Y-62990238D02*
X60009523Y-63037857D01*
X60009523Y-63037857D02*
X59961904Y-63133095D01*
X59961904Y-63133095D02*
X59914285Y-63323571D01*
X59914285Y-63323571D02*
X59914285Y-63561666D01*
X59914285Y-63561666D02*
X59961904Y-63752142D01*
X59961904Y-63752142D02*
X60009523Y-63847380D01*
X60009523Y-63847380D02*
X60057142Y-63895000D01*
X60057142Y-63895000D02*
X60152380Y-63942619D01*
X60152380Y-63942619D02*
X60247618Y-63942619D01*
X60247618Y-63942619D02*
X60342856Y-63895000D01*
X60342856Y-63895000D02*
X60390475Y-63847380D01*
X60390475Y-63847380D02*
X60438094Y-63752142D01*
X60438094Y-63752142D02*
X60485713Y-63561666D01*
X60485713Y-63561666D02*
X60485713Y-63323571D01*
X60485713Y-63323571D02*
X60438094Y-63133095D01*
X60438094Y-63133095D02*
X60390475Y-63037857D01*
X60390475Y-63037857D02*
X60342856Y-62990238D01*
X60342856Y-62990238D02*
X60247618Y-62942619D01*
X59485713Y-63847380D02*
X59438094Y-63895000D01*
X59438094Y-63895000D02*
X59485713Y-63942619D01*
X59485713Y-63942619D02*
X59533332Y-63895000D01*
X59533332Y-63895000D02*
X59485713Y-63847380D01*
X59485713Y-63847380D02*
X59485713Y-63942619D01*
X58485714Y-63942619D02*
X59057142Y-63942619D01*
X58771428Y-63942619D02*
X58771428Y-62942619D01*
X58771428Y-62942619D02*
X58866666Y-63085476D01*
X58866666Y-63085476D02*
X58961904Y-63180714D01*
X58961904Y-63180714D02*
X59057142Y-63228333D01*
X56723809Y-63942619D02*
X57057142Y-63466428D01*
X57295237Y-63942619D02*
X57295237Y-62942619D01*
X57295237Y-62942619D02*
X56914285Y-62942619D01*
X56914285Y-62942619D02*
X56819047Y-62990238D01*
X56819047Y-62990238D02*
X56771428Y-63037857D01*
X56771428Y-63037857D02*
X56723809Y-63133095D01*
X56723809Y-63133095D02*
X56723809Y-63275952D01*
X56723809Y-63275952D02*
X56771428Y-63371190D01*
X56771428Y-63371190D02*
X56819047Y-63418809D01*
X56819047Y-63418809D02*
X56914285Y-63466428D01*
X56914285Y-63466428D02*
X57295237Y-63466428D01*
X55771428Y-63942619D02*
X56342856Y-63942619D01*
X56057142Y-63942619D02*
X56057142Y-62942619D01*
X56057142Y-62942619D02*
X56152380Y-63085476D01*
X56152380Y-63085476D02*
X56247618Y-63180714D01*
X56247618Y-63180714D02*
X56342856Y-63228333D01*
X68938094Y-64895952D02*
X68747618Y-65562619D01*
X68747618Y-65562619D02*
X68557142Y-65086428D01*
X68557142Y-65086428D02*
X68366666Y-65562619D01*
X68366666Y-65562619D02*
X68176190Y-64895952D01*
X67890475Y-64895952D02*
X67699999Y-65562619D01*
X67699999Y-65562619D02*
X67509523Y-65086428D01*
X67509523Y-65086428D02*
X67319047Y-65562619D01*
X67319047Y-65562619D02*
X67128571Y-64895952D01*
X66842856Y-64895952D02*
X66652380Y-65562619D01*
X66652380Y-65562619D02*
X66461904Y-65086428D01*
X66461904Y-65086428D02*
X66271428Y-65562619D01*
X66271428Y-65562619D02*
X66080952Y-64895952D01*
X65699999Y-65467380D02*
X65652380Y-65515000D01*
X65652380Y-65515000D02*
X65699999Y-65562619D01*
X65699999Y-65562619D02*
X65747618Y-65515000D01*
X65747618Y-65515000D02*
X65699999Y-65467380D01*
X65699999Y-65467380D02*
X65699999Y-65562619D01*
X65223809Y-65562619D02*
X65223809Y-64895952D01*
X65223809Y-64562619D02*
X65271428Y-64610238D01*
X65271428Y-64610238D02*
X65223809Y-64657857D01*
X65223809Y-64657857D02*
X65176190Y-64610238D01*
X65176190Y-64610238D02*
X65223809Y-64562619D01*
X65223809Y-64562619D02*
X65223809Y-64657857D01*
X64604762Y-65562619D02*
X64700000Y-65515000D01*
X64700000Y-65515000D02*
X64747619Y-65467380D01*
X64747619Y-65467380D02*
X64795238Y-65372142D01*
X64795238Y-65372142D02*
X64795238Y-65086428D01*
X64795238Y-65086428D02*
X64747619Y-64991190D01*
X64747619Y-64991190D02*
X64700000Y-64943571D01*
X64700000Y-64943571D02*
X64604762Y-64895952D01*
X64604762Y-64895952D02*
X64461905Y-64895952D01*
X64461905Y-64895952D02*
X64366667Y-64943571D01*
X64366667Y-64943571D02*
X64319048Y-64991190D01*
X64319048Y-64991190D02*
X64271429Y-65086428D01*
X64271429Y-65086428D02*
X64271429Y-65372142D01*
X64271429Y-65372142D02*
X64319048Y-65467380D01*
X64319048Y-65467380D02*
X64366667Y-65515000D01*
X64366667Y-65515000D02*
X64461905Y-65562619D01*
X64461905Y-65562619D02*
X64604762Y-65562619D01*
X63842857Y-65562619D02*
X63842857Y-64895952D01*
X63842857Y-65086428D02*
X63795238Y-64991190D01*
X63795238Y-64991190D02*
X63747619Y-64943571D01*
X63747619Y-64943571D02*
X63652381Y-64895952D01*
X63652381Y-64895952D02*
X63557143Y-64895952D01*
X63080952Y-65562619D02*
X63176190Y-65515000D01*
X63176190Y-65515000D02*
X63223809Y-65467380D01*
X63223809Y-65467380D02*
X63271428Y-65372142D01*
X63271428Y-65372142D02*
X63271428Y-65086428D01*
X63271428Y-65086428D02*
X63223809Y-64991190D01*
X63223809Y-64991190D02*
X63176190Y-64943571D01*
X63176190Y-64943571D02*
X63080952Y-64895952D01*
X63080952Y-64895952D02*
X62938095Y-64895952D01*
X62938095Y-64895952D02*
X62842857Y-64943571D01*
X62842857Y-64943571D02*
X62795238Y-64991190D01*
X62795238Y-64991190D02*
X62747619Y-65086428D01*
X62747619Y-65086428D02*
X62747619Y-65372142D01*
X62747619Y-65372142D02*
X62795238Y-65467380D01*
X62795238Y-65467380D02*
X62842857Y-65515000D01*
X62842857Y-65515000D02*
X62938095Y-65562619D01*
X62938095Y-65562619D02*
X63080952Y-65562619D01*
X61890476Y-65562619D02*
X61890476Y-64562619D01*
X61890476Y-65515000D02*
X61985714Y-65562619D01*
X61985714Y-65562619D02*
X62176190Y-65562619D01*
X62176190Y-65562619D02*
X62271428Y-65515000D01*
X62271428Y-65515000D02*
X62319047Y-65467380D01*
X62319047Y-65467380D02*
X62366666Y-65372142D01*
X62366666Y-65372142D02*
X62366666Y-65086428D01*
X62366666Y-65086428D02*
X62319047Y-64991190D01*
X62319047Y-64991190D02*
X62271428Y-64943571D01*
X62271428Y-64943571D02*
X62176190Y-64895952D01*
X62176190Y-64895952D02*
X61985714Y-64895952D01*
X61985714Y-64895952D02*
X61890476Y-64943571D01*
X61033333Y-65515000D02*
X61128571Y-65562619D01*
X61128571Y-65562619D02*
X61319047Y-65562619D01*
X61319047Y-65562619D02*
X61414285Y-65515000D01*
X61414285Y-65515000D02*
X61461904Y-65419761D01*
X61461904Y-65419761D02*
X61461904Y-65038809D01*
X61461904Y-65038809D02*
X61414285Y-64943571D01*
X61414285Y-64943571D02*
X61319047Y-64895952D01*
X61319047Y-64895952D02*
X61128571Y-64895952D01*
X61128571Y-64895952D02*
X61033333Y-64943571D01*
X61033333Y-64943571D02*
X60985714Y-65038809D01*
X60985714Y-65038809D02*
X60985714Y-65134047D01*
X60985714Y-65134047D02*
X61461904Y-65229285D01*
X60414285Y-65562619D02*
X60509523Y-65515000D01*
X60509523Y-65515000D02*
X60557142Y-65467380D01*
X60557142Y-65467380D02*
X60604761Y-65372142D01*
X60604761Y-65372142D02*
X60604761Y-65086428D01*
X60604761Y-65086428D02*
X60557142Y-64991190D01*
X60557142Y-64991190D02*
X60509523Y-64943571D01*
X60509523Y-64943571D02*
X60414285Y-64895952D01*
X60414285Y-64895952D02*
X60271428Y-64895952D01*
X60271428Y-64895952D02*
X60176190Y-64943571D01*
X60176190Y-64943571D02*
X60128571Y-64991190D01*
X60128571Y-64991190D02*
X60080952Y-65086428D01*
X60080952Y-65086428D02*
X60080952Y-65372142D01*
X60080952Y-65372142D02*
X60128571Y-65467380D01*
X60128571Y-65467380D02*
X60176190Y-65515000D01*
X60176190Y-65515000D02*
X60271428Y-65562619D01*
X60271428Y-65562619D02*
X60414285Y-65562619D01*
X59652380Y-65467380D02*
X59604761Y-65515000D01*
X59604761Y-65515000D02*
X59652380Y-65562619D01*
X59652380Y-65562619D02*
X59699999Y-65515000D01*
X59699999Y-65515000D02*
X59652380Y-65467380D01*
X59652380Y-65467380D02*
X59652380Y-65562619D01*
X58747619Y-65515000D02*
X58842857Y-65562619D01*
X58842857Y-65562619D02*
X59033333Y-65562619D01*
X59033333Y-65562619D02*
X59128571Y-65515000D01*
X59128571Y-65515000D02*
X59176190Y-65467380D01*
X59176190Y-65467380D02*
X59223809Y-65372142D01*
X59223809Y-65372142D02*
X59223809Y-65086428D01*
X59223809Y-65086428D02*
X59176190Y-64991190D01*
X59176190Y-64991190D02*
X59128571Y-64943571D01*
X59128571Y-64943571D02*
X59033333Y-64895952D01*
X59033333Y-64895952D02*
X58842857Y-64895952D01*
X58842857Y-64895952D02*
X58747619Y-64943571D01*
X58176190Y-65562619D02*
X58271428Y-65515000D01*
X58271428Y-65515000D02*
X58319047Y-65467380D01*
X58319047Y-65467380D02*
X58366666Y-65372142D01*
X58366666Y-65372142D02*
X58366666Y-65086428D01*
X58366666Y-65086428D02*
X58319047Y-64991190D01*
X58319047Y-64991190D02*
X58271428Y-64943571D01*
X58271428Y-64943571D02*
X58176190Y-64895952D01*
X58176190Y-64895952D02*
X58033333Y-64895952D01*
X58033333Y-64895952D02*
X57938095Y-64943571D01*
X57938095Y-64943571D02*
X57890476Y-64991190D01*
X57890476Y-64991190D02*
X57842857Y-65086428D01*
X57842857Y-65086428D02*
X57842857Y-65372142D01*
X57842857Y-65372142D02*
X57890476Y-65467380D01*
X57890476Y-65467380D02*
X57938095Y-65515000D01*
X57938095Y-65515000D02*
X58033333Y-65562619D01*
X58033333Y-65562619D02*
X58176190Y-65562619D01*
X57414285Y-65562619D02*
X57414285Y-64895952D01*
X57414285Y-64991190D02*
X57366666Y-64943571D01*
X57366666Y-64943571D02*
X57271428Y-64895952D01*
X57271428Y-64895952D02*
X57128571Y-64895952D01*
X57128571Y-64895952D02*
X57033333Y-64943571D01*
X57033333Y-64943571D02*
X56985714Y-65038809D01*
X56985714Y-65038809D02*
X56985714Y-65562619D01*
X56985714Y-65038809D02*
X56938095Y-64943571D01*
X56938095Y-64943571D02*
X56842857Y-64895952D01*
X56842857Y-64895952D02*
X56700000Y-64895952D01*
X56700000Y-64895952D02*
X56604761Y-64943571D01*
X56604761Y-64943571D02*
X56557142Y-65038809D01*
X56557142Y-65038809D02*
X56557142Y-65562619D01*
X64247619Y-67182619D02*
X64580952Y-66706428D01*
X64819047Y-67182619D02*
X64819047Y-66182619D01*
X64819047Y-66182619D02*
X64438095Y-66182619D01*
X64438095Y-66182619D02*
X64342857Y-66230238D01*
X64342857Y-66230238D02*
X64295238Y-66277857D01*
X64295238Y-66277857D02*
X64247619Y-66373095D01*
X64247619Y-66373095D02*
X64247619Y-66515952D01*
X64247619Y-66515952D02*
X64295238Y-66611190D01*
X64295238Y-66611190D02*
X64342857Y-66658809D01*
X64342857Y-66658809D02*
X64438095Y-66706428D01*
X64438095Y-66706428D02*
X64819047Y-66706428D01*
X63390476Y-67182619D02*
X63390476Y-66658809D01*
X63390476Y-66658809D02*
X63438095Y-66563571D01*
X63438095Y-66563571D02*
X63533333Y-66515952D01*
X63533333Y-66515952D02*
X63723809Y-66515952D01*
X63723809Y-66515952D02*
X63819047Y-66563571D01*
X63390476Y-67135000D02*
X63485714Y-67182619D01*
X63485714Y-67182619D02*
X63723809Y-67182619D01*
X63723809Y-67182619D02*
X63819047Y-67135000D01*
X63819047Y-67135000D02*
X63866666Y-67039761D01*
X63866666Y-67039761D02*
X63866666Y-66944523D01*
X63866666Y-66944523D02*
X63819047Y-66849285D01*
X63819047Y-66849285D02*
X63723809Y-66801666D01*
X63723809Y-66801666D02*
X63485714Y-66801666D01*
X63485714Y-66801666D02*
X63390476Y-66754047D01*
X62485714Y-67182619D02*
X62485714Y-66182619D01*
X62485714Y-67135000D02*
X62580952Y-67182619D01*
X62580952Y-67182619D02*
X62771428Y-67182619D01*
X62771428Y-67182619D02*
X62866666Y-67135000D01*
X62866666Y-67135000D02*
X62914285Y-67087380D01*
X62914285Y-67087380D02*
X62961904Y-66992142D01*
X62961904Y-66992142D02*
X62961904Y-66706428D01*
X62961904Y-66706428D02*
X62914285Y-66611190D01*
X62914285Y-66611190D02*
X62866666Y-66563571D01*
X62866666Y-66563571D02*
X62771428Y-66515952D01*
X62771428Y-66515952D02*
X62580952Y-66515952D01*
X62580952Y-66515952D02*
X62485714Y-66563571D01*
X62009523Y-67182619D02*
X62009523Y-66515952D01*
X62009523Y-66182619D02*
X62057142Y-66230238D01*
X62057142Y-66230238D02*
X62009523Y-66277857D01*
X62009523Y-66277857D02*
X61961904Y-66230238D01*
X61961904Y-66230238D02*
X62009523Y-66182619D01*
X62009523Y-66182619D02*
X62009523Y-66277857D01*
X61104762Y-67182619D02*
X61104762Y-66658809D01*
X61104762Y-66658809D02*
X61152381Y-66563571D01*
X61152381Y-66563571D02*
X61247619Y-66515952D01*
X61247619Y-66515952D02*
X61438095Y-66515952D01*
X61438095Y-66515952D02*
X61533333Y-66563571D01*
X61104762Y-67135000D02*
X61200000Y-67182619D01*
X61200000Y-67182619D02*
X61438095Y-67182619D01*
X61438095Y-67182619D02*
X61533333Y-67135000D01*
X61533333Y-67135000D02*
X61580952Y-67039761D01*
X61580952Y-67039761D02*
X61580952Y-66944523D01*
X61580952Y-66944523D02*
X61533333Y-66849285D01*
X61533333Y-66849285D02*
X61438095Y-66801666D01*
X61438095Y-66801666D02*
X61200000Y-66801666D01*
X61200000Y-66801666D02*
X61104762Y-66754047D01*
X60485714Y-67182619D02*
X60580952Y-67135000D01*
X60580952Y-67135000D02*
X60628571Y-67039761D01*
X60628571Y-67039761D02*
X60628571Y-66182619D01*
%TO.C,R1*%
X62841666Y-54937619D02*
X63174999Y-54461428D01*
X63413094Y-54937619D02*
X63413094Y-53937619D01*
X63413094Y-53937619D02*
X63032142Y-53937619D01*
X63032142Y-53937619D02*
X62936904Y-53985238D01*
X62936904Y-53985238D02*
X62889285Y-54032857D01*
X62889285Y-54032857D02*
X62841666Y-54128095D01*
X62841666Y-54128095D02*
X62841666Y-54270952D01*
X62841666Y-54270952D02*
X62889285Y-54366190D01*
X62889285Y-54366190D02*
X62936904Y-54413809D01*
X62936904Y-54413809D02*
X63032142Y-54461428D01*
X63032142Y-54461428D02*
X63413094Y-54461428D01*
X61889285Y-54937619D02*
X62460713Y-54937619D01*
X62174999Y-54937619D02*
X62174999Y-53937619D01*
X62174999Y-53937619D02*
X62270237Y-54080476D01*
X62270237Y-54080476D02*
X62365475Y-54175714D01*
X62365475Y-54175714D02*
X62460713Y-54223333D01*
%TO.C,M1*%
X54990000Y-52540000D02*
G75*
G03*
X54990000Y-52540000I-2450000J0D01*
G01*
%TO.C,M2*%
X75310000Y-52540000D02*
G75*
G03*
X75310000Y-52540000I-2450000J0D01*
G01*
%TO.C,M3*%
X75310000Y-67460000D02*
G75*
G03*
X75310000Y-67460000I-2450000J0D01*
G01*
%TO.C,M4*%
X54990000Y-67460000D02*
G75*
G03*
X54990000Y-67460000I-2450000J0D01*
G01*
D11*
%TO.C,R1*%
X59430000Y-53130000D02*
X65970000Y-53130000D01*
X59430000Y-53460000D02*
X59430000Y-53130000D01*
X59430000Y-55540000D02*
X59430000Y-55870000D01*
X59430000Y-55870000D02*
X65970000Y-55870000D01*
X65970000Y-53130000D02*
X65970000Y-53460000D01*
X65970000Y-55870000D02*
X65970000Y-55540000D01*
%TD*%
M02*
