%TF.GenerationSoftware,KiCad,Pcbnew,7.0.2-6a45011f42~172~ubuntu22.04.1*%
%TF.CreationDate,2023-09-06T17:39:41-07:00*%
%TF.ProjectId,basic_led,62617369-635f-46c6-9564-2e6b69636164,rev?*%
%TF.SameCoordinates,Original*%
%TF.FileFunction,Legend,Bot*%
%TF.FilePolarity,Positive*%
%FSLAX46Y46*%
G04 Gerber Fmt 4.6, Leading zero omitted, Abs format (unit mm)*
G04 Created by KiCad (PCBNEW 7.0.2-6a45011f42~172~ubuntu22.04.1) date 2023-09-06 17:39:41*
%MOMM*%
%LPD*%
G01*
G04 APERTURE LIST*
%ADD10C,0.150000*%
G04 APERTURE END LIST*
D10*
X69247619Y-54988809D02*
X69104762Y-55036428D01*
X69104762Y-55036428D02*
X69057143Y-55084047D01*
X69057143Y-55084047D02*
X69009524Y-55179285D01*
X69009524Y-55179285D02*
X69009524Y-55322142D01*
X69009524Y-55322142D02*
X69057143Y-55417380D01*
X69057143Y-55417380D02*
X69104762Y-55465000D01*
X69104762Y-55465000D02*
X69200000Y-55512619D01*
X69200000Y-55512619D02*
X69580952Y-55512619D01*
X69580952Y-55512619D02*
X69580952Y-54512619D01*
X69580952Y-54512619D02*
X69247619Y-54512619D01*
X69247619Y-54512619D02*
X69152381Y-54560238D01*
X69152381Y-54560238D02*
X69104762Y-54607857D01*
X69104762Y-54607857D02*
X69057143Y-54703095D01*
X69057143Y-54703095D02*
X69057143Y-54798333D01*
X69057143Y-54798333D02*
X69104762Y-54893571D01*
X69104762Y-54893571D02*
X69152381Y-54941190D01*
X69152381Y-54941190D02*
X69247619Y-54988809D01*
X69247619Y-54988809D02*
X69580952Y-54988809D01*
X68152381Y-55512619D02*
X68152381Y-54988809D01*
X68152381Y-54988809D02*
X68200000Y-54893571D01*
X68200000Y-54893571D02*
X68295238Y-54845952D01*
X68295238Y-54845952D02*
X68485714Y-54845952D01*
X68485714Y-54845952D02*
X68580952Y-54893571D01*
X68152381Y-55465000D02*
X68247619Y-55512619D01*
X68247619Y-55512619D02*
X68485714Y-55512619D01*
X68485714Y-55512619D02*
X68580952Y-55465000D01*
X68580952Y-55465000D02*
X68628571Y-55369761D01*
X68628571Y-55369761D02*
X68628571Y-55274523D01*
X68628571Y-55274523D02*
X68580952Y-55179285D01*
X68580952Y-55179285D02*
X68485714Y-55131666D01*
X68485714Y-55131666D02*
X68247619Y-55131666D01*
X68247619Y-55131666D02*
X68152381Y-55084047D01*
X67723809Y-55465000D02*
X67628571Y-55512619D01*
X67628571Y-55512619D02*
X67438095Y-55512619D01*
X67438095Y-55512619D02*
X67342857Y-55465000D01*
X67342857Y-55465000D02*
X67295238Y-55369761D01*
X67295238Y-55369761D02*
X67295238Y-55322142D01*
X67295238Y-55322142D02*
X67342857Y-55226904D01*
X67342857Y-55226904D02*
X67438095Y-55179285D01*
X67438095Y-55179285D02*
X67580952Y-55179285D01*
X67580952Y-55179285D02*
X67676190Y-55131666D01*
X67676190Y-55131666D02*
X67723809Y-55036428D01*
X67723809Y-55036428D02*
X67723809Y-54988809D01*
X67723809Y-54988809D02*
X67676190Y-54893571D01*
X67676190Y-54893571D02*
X67580952Y-54845952D01*
X67580952Y-54845952D02*
X67438095Y-54845952D01*
X67438095Y-54845952D02*
X67342857Y-54893571D01*
X66866666Y-55512619D02*
X66866666Y-54845952D01*
X66866666Y-54512619D02*
X66914285Y-54560238D01*
X66914285Y-54560238D02*
X66866666Y-54607857D01*
X66866666Y-54607857D02*
X66819047Y-54560238D01*
X66819047Y-54560238D02*
X66866666Y-54512619D01*
X66866666Y-54512619D02*
X66866666Y-54607857D01*
X65961905Y-55465000D02*
X66057143Y-55512619D01*
X66057143Y-55512619D02*
X66247619Y-55512619D01*
X66247619Y-55512619D02*
X66342857Y-55465000D01*
X66342857Y-55465000D02*
X66390476Y-55417380D01*
X66390476Y-55417380D02*
X66438095Y-55322142D01*
X66438095Y-55322142D02*
X66438095Y-55036428D01*
X66438095Y-55036428D02*
X66390476Y-54941190D01*
X66390476Y-54941190D02*
X66342857Y-54893571D01*
X66342857Y-54893571D02*
X66247619Y-54845952D01*
X66247619Y-54845952D02*
X66057143Y-54845952D01*
X66057143Y-54845952D02*
X65961905Y-54893571D01*
X64295238Y-55512619D02*
X64771428Y-55512619D01*
X64771428Y-55512619D02*
X64771428Y-54512619D01*
X63961904Y-54988809D02*
X63628571Y-54988809D01*
X63485714Y-55512619D02*
X63961904Y-55512619D01*
X63961904Y-55512619D02*
X63961904Y-54512619D01*
X63961904Y-54512619D02*
X63485714Y-54512619D01*
X63057142Y-55512619D02*
X63057142Y-54512619D01*
X63057142Y-54512619D02*
X62819047Y-54512619D01*
X62819047Y-54512619D02*
X62676190Y-54560238D01*
X62676190Y-54560238D02*
X62580952Y-54655476D01*
X62580952Y-54655476D02*
X62533333Y-54750714D01*
X62533333Y-54750714D02*
X62485714Y-54941190D01*
X62485714Y-54941190D02*
X62485714Y-55084047D01*
X62485714Y-55084047D02*
X62533333Y-55274523D01*
X62533333Y-55274523D02*
X62580952Y-55369761D01*
X62580952Y-55369761D02*
X62676190Y-55465000D01*
X62676190Y-55465000D02*
X62819047Y-55512619D01*
X62819047Y-55512619D02*
X63057142Y-55512619D01*
X61438094Y-54512619D02*
X61104761Y-55512619D01*
X61104761Y-55512619D02*
X60771428Y-54512619D01*
X60247618Y-54512619D02*
X60152380Y-54512619D01*
X60152380Y-54512619D02*
X60057142Y-54560238D01*
X60057142Y-54560238D02*
X60009523Y-54607857D01*
X60009523Y-54607857D02*
X59961904Y-54703095D01*
X59961904Y-54703095D02*
X59914285Y-54893571D01*
X59914285Y-54893571D02*
X59914285Y-55131666D01*
X59914285Y-55131666D02*
X59961904Y-55322142D01*
X59961904Y-55322142D02*
X60009523Y-55417380D01*
X60009523Y-55417380D02*
X60057142Y-55465000D01*
X60057142Y-55465000D02*
X60152380Y-55512619D01*
X60152380Y-55512619D02*
X60247618Y-55512619D01*
X60247618Y-55512619D02*
X60342856Y-55465000D01*
X60342856Y-55465000D02*
X60390475Y-55417380D01*
X60390475Y-55417380D02*
X60438094Y-55322142D01*
X60438094Y-55322142D02*
X60485713Y-55131666D01*
X60485713Y-55131666D02*
X60485713Y-54893571D01*
X60485713Y-54893571D02*
X60438094Y-54703095D01*
X60438094Y-54703095D02*
X60390475Y-54607857D01*
X60390475Y-54607857D02*
X60342856Y-54560238D01*
X60342856Y-54560238D02*
X60247618Y-54512619D01*
X59485713Y-55417380D02*
X59438094Y-55465000D01*
X59438094Y-55465000D02*
X59485713Y-55512619D01*
X59485713Y-55512619D02*
X59533332Y-55465000D01*
X59533332Y-55465000D02*
X59485713Y-55417380D01*
X59485713Y-55417380D02*
X59485713Y-55512619D01*
X58485714Y-55512619D02*
X59057142Y-55512619D01*
X58771428Y-55512619D02*
X58771428Y-54512619D01*
X58771428Y-54512619D02*
X58866666Y-54655476D01*
X58866666Y-54655476D02*
X58961904Y-54750714D01*
X58961904Y-54750714D02*
X59057142Y-54798333D01*
X56723809Y-55512619D02*
X57057142Y-55036428D01*
X57295237Y-55512619D02*
X57295237Y-54512619D01*
X57295237Y-54512619D02*
X56914285Y-54512619D01*
X56914285Y-54512619D02*
X56819047Y-54560238D01*
X56819047Y-54560238D02*
X56771428Y-54607857D01*
X56771428Y-54607857D02*
X56723809Y-54703095D01*
X56723809Y-54703095D02*
X56723809Y-54845952D01*
X56723809Y-54845952D02*
X56771428Y-54941190D01*
X56771428Y-54941190D02*
X56819047Y-54988809D01*
X56819047Y-54988809D02*
X56914285Y-55036428D01*
X56914285Y-55036428D02*
X57295237Y-55036428D01*
X55771428Y-55512619D02*
X56342856Y-55512619D01*
X56057142Y-55512619D02*
X56057142Y-54512619D01*
X56057142Y-54512619D02*
X56152380Y-54655476D01*
X56152380Y-54655476D02*
X56247618Y-54750714D01*
X56247618Y-54750714D02*
X56342856Y-54798333D01*
X68938094Y-56465952D02*
X68747618Y-57132619D01*
X68747618Y-57132619D02*
X68557142Y-56656428D01*
X68557142Y-56656428D02*
X68366666Y-57132619D01*
X68366666Y-57132619D02*
X68176190Y-56465952D01*
X67890475Y-56465952D02*
X67699999Y-57132619D01*
X67699999Y-57132619D02*
X67509523Y-56656428D01*
X67509523Y-56656428D02*
X67319047Y-57132619D01*
X67319047Y-57132619D02*
X67128571Y-56465952D01*
X66842856Y-56465952D02*
X66652380Y-57132619D01*
X66652380Y-57132619D02*
X66461904Y-56656428D01*
X66461904Y-56656428D02*
X66271428Y-57132619D01*
X66271428Y-57132619D02*
X66080952Y-56465952D01*
X65699999Y-57037380D02*
X65652380Y-57085000D01*
X65652380Y-57085000D02*
X65699999Y-57132619D01*
X65699999Y-57132619D02*
X65747618Y-57085000D01*
X65747618Y-57085000D02*
X65699999Y-57037380D01*
X65699999Y-57037380D02*
X65699999Y-57132619D01*
X65223809Y-57132619D02*
X65223809Y-56465952D01*
X65223809Y-56132619D02*
X65271428Y-56180238D01*
X65271428Y-56180238D02*
X65223809Y-56227857D01*
X65223809Y-56227857D02*
X65176190Y-56180238D01*
X65176190Y-56180238D02*
X65223809Y-56132619D01*
X65223809Y-56132619D02*
X65223809Y-56227857D01*
X64604762Y-57132619D02*
X64700000Y-57085000D01*
X64700000Y-57085000D02*
X64747619Y-57037380D01*
X64747619Y-57037380D02*
X64795238Y-56942142D01*
X64795238Y-56942142D02*
X64795238Y-56656428D01*
X64795238Y-56656428D02*
X64747619Y-56561190D01*
X64747619Y-56561190D02*
X64700000Y-56513571D01*
X64700000Y-56513571D02*
X64604762Y-56465952D01*
X64604762Y-56465952D02*
X64461905Y-56465952D01*
X64461905Y-56465952D02*
X64366667Y-56513571D01*
X64366667Y-56513571D02*
X64319048Y-56561190D01*
X64319048Y-56561190D02*
X64271429Y-56656428D01*
X64271429Y-56656428D02*
X64271429Y-56942142D01*
X64271429Y-56942142D02*
X64319048Y-57037380D01*
X64319048Y-57037380D02*
X64366667Y-57085000D01*
X64366667Y-57085000D02*
X64461905Y-57132619D01*
X64461905Y-57132619D02*
X64604762Y-57132619D01*
X63842857Y-57132619D02*
X63842857Y-56465952D01*
X63842857Y-56656428D02*
X63795238Y-56561190D01*
X63795238Y-56561190D02*
X63747619Y-56513571D01*
X63747619Y-56513571D02*
X63652381Y-56465952D01*
X63652381Y-56465952D02*
X63557143Y-56465952D01*
X63080952Y-57132619D02*
X63176190Y-57085000D01*
X63176190Y-57085000D02*
X63223809Y-57037380D01*
X63223809Y-57037380D02*
X63271428Y-56942142D01*
X63271428Y-56942142D02*
X63271428Y-56656428D01*
X63271428Y-56656428D02*
X63223809Y-56561190D01*
X63223809Y-56561190D02*
X63176190Y-56513571D01*
X63176190Y-56513571D02*
X63080952Y-56465952D01*
X63080952Y-56465952D02*
X62938095Y-56465952D01*
X62938095Y-56465952D02*
X62842857Y-56513571D01*
X62842857Y-56513571D02*
X62795238Y-56561190D01*
X62795238Y-56561190D02*
X62747619Y-56656428D01*
X62747619Y-56656428D02*
X62747619Y-56942142D01*
X62747619Y-56942142D02*
X62795238Y-57037380D01*
X62795238Y-57037380D02*
X62842857Y-57085000D01*
X62842857Y-57085000D02*
X62938095Y-57132619D01*
X62938095Y-57132619D02*
X63080952Y-57132619D01*
X61890476Y-57132619D02*
X61890476Y-56132619D01*
X61890476Y-57085000D02*
X61985714Y-57132619D01*
X61985714Y-57132619D02*
X62176190Y-57132619D01*
X62176190Y-57132619D02*
X62271428Y-57085000D01*
X62271428Y-57085000D02*
X62319047Y-57037380D01*
X62319047Y-57037380D02*
X62366666Y-56942142D01*
X62366666Y-56942142D02*
X62366666Y-56656428D01*
X62366666Y-56656428D02*
X62319047Y-56561190D01*
X62319047Y-56561190D02*
X62271428Y-56513571D01*
X62271428Y-56513571D02*
X62176190Y-56465952D01*
X62176190Y-56465952D02*
X61985714Y-56465952D01*
X61985714Y-56465952D02*
X61890476Y-56513571D01*
X61033333Y-57085000D02*
X61128571Y-57132619D01*
X61128571Y-57132619D02*
X61319047Y-57132619D01*
X61319047Y-57132619D02*
X61414285Y-57085000D01*
X61414285Y-57085000D02*
X61461904Y-56989761D01*
X61461904Y-56989761D02*
X61461904Y-56608809D01*
X61461904Y-56608809D02*
X61414285Y-56513571D01*
X61414285Y-56513571D02*
X61319047Y-56465952D01*
X61319047Y-56465952D02*
X61128571Y-56465952D01*
X61128571Y-56465952D02*
X61033333Y-56513571D01*
X61033333Y-56513571D02*
X60985714Y-56608809D01*
X60985714Y-56608809D02*
X60985714Y-56704047D01*
X60985714Y-56704047D02*
X61461904Y-56799285D01*
X60414285Y-57132619D02*
X60509523Y-57085000D01*
X60509523Y-57085000D02*
X60557142Y-57037380D01*
X60557142Y-57037380D02*
X60604761Y-56942142D01*
X60604761Y-56942142D02*
X60604761Y-56656428D01*
X60604761Y-56656428D02*
X60557142Y-56561190D01*
X60557142Y-56561190D02*
X60509523Y-56513571D01*
X60509523Y-56513571D02*
X60414285Y-56465952D01*
X60414285Y-56465952D02*
X60271428Y-56465952D01*
X60271428Y-56465952D02*
X60176190Y-56513571D01*
X60176190Y-56513571D02*
X60128571Y-56561190D01*
X60128571Y-56561190D02*
X60080952Y-56656428D01*
X60080952Y-56656428D02*
X60080952Y-56942142D01*
X60080952Y-56942142D02*
X60128571Y-57037380D01*
X60128571Y-57037380D02*
X60176190Y-57085000D01*
X60176190Y-57085000D02*
X60271428Y-57132619D01*
X60271428Y-57132619D02*
X60414285Y-57132619D01*
X59652380Y-57037380D02*
X59604761Y-57085000D01*
X59604761Y-57085000D02*
X59652380Y-57132619D01*
X59652380Y-57132619D02*
X59699999Y-57085000D01*
X59699999Y-57085000D02*
X59652380Y-57037380D01*
X59652380Y-57037380D02*
X59652380Y-57132619D01*
X58747619Y-57085000D02*
X58842857Y-57132619D01*
X58842857Y-57132619D02*
X59033333Y-57132619D01*
X59033333Y-57132619D02*
X59128571Y-57085000D01*
X59128571Y-57085000D02*
X59176190Y-57037380D01*
X59176190Y-57037380D02*
X59223809Y-56942142D01*
X59223809Y-56942142D02*
X59223809Y-56656428D01*
X59223809Y-56656428D02*
X59176190Y-56561190D01*
X59176190Y-56561190D02*
X59128571Y-56513571D01*
X59128571Y-56513571D02*
X59033333Y-56465952D01*
X59033333Y-56465952D02*
X58842857Y-56465952D01*
X58842857Y-56465952D02*
X58747619Y-56513571D01*
X58176190Y-57132619D02*
X58271428Y-57085000D01*
X58271428Y-57085000D02*
X58319047Y-57037380D01*
X58319047Y-57037380D02*
X58366666Y-56942142D01*
X58366666Y-56942142D02*
X58366666Y-56656428D01*
X58366666Y-56656428D02*
X58319047Y-56561190D01*
X58319047Y-56561190D02*
X58271428Y-56513571D01*
X58271428Y-56513571D02*
X58176190Y-56465952D01*
X58176190Y-56465952D02*
X58033333Y-56465952D01*
X58033333Y-56465952D02*
X57938095Y-56513571D01*
X57938095Y-56513571D02*
X57890476Y-56561190D01*
X57890476Y-56561190D02*
X57842857Y-56656428D01*
X57842857Y-56656428D02*
X57842857Y-56942142D01*
X57842857Y-56942142D02*
X57890476Y-57037380D01*
X57890476Y-57037380D02*
X57938095Y-57085000D01*
X57938095Y-57085000D02*
X58033333Y-57132619D01*
X58033333Y-57132619D02*
X58176190Y-57132619D01*
X57414285Y-57132619D02*
X57414285Y-56465952D01*
X57414285Y-56561190D02*
X57366666Y-56513571D01*
X57366666Y-56513571D02*
X57271428Y-56465952D01*
X57271428Y-56465952D02*
X57128571Y-56465952D01*
X57128571Y-56465952D02*
X57033333Y-56513571D01*
X57033333Y-56513571D02*
X56985714Y-56608809D01*
X56985714Y-56608809D02*
X56985714Y-57132619D01*
X56985714Y-56608809D02*
X56938095Y-56513571D01*
X56938095Y-56513571D02*
X56842857Y-56465952D01*
X56842857Y-56465952D02*
X56700000Y-56465952D01*
X56700000Y-56465952D02*
X56604761Y-56513571D01*
X56604761Y-56513571D02*
X56557142Y-56608809D01*
X56557142Y-56608809D02*
X56557142Y-57132619D01*
X67176190Y-63612619D02*
X67509523Y-63136428D01*
X67747618Y-63612619D02*
X67747618Y-62612619D01*
X67747618Y-62612619D02*
X67366666Y-62612619D01*
X67366666Y-62612619D02*
X67271428Y-62660238D01*
X67271428Y-62660238D02*
X67223809Y-62707857D01*
X67223809Y-62707857D02*
X67176190Y-62803095D01*
X67176190Y-62803095D02*
X67176190Y-62945952D01*
X67176190Y-62945952D02*
X67223809Y-63041190D01*
X67223809Y-63041190D02*
X67271428Y-63088809D01*
X67271428Y-63088809D02*
X67366666Y-63136428D01*
X67366666Y-63136428D02*
X67747618Y-63136428D01*
X66319047Y-63612619D02*
X66319047Y-63088809D01*
X66319047Y-63088809D02*
X66366666Y-62993571D01*
X66366666Y-62993571D02*
X66461904Y-62945952D01*
X66461904Y-62945952D02*
X66652380Y-62945952D01*
X66652380Y-62945952D02*
X66747618Y-62993571D01*
X66319047Y-63565000D02*
X66414285Y-63612619D01*
X66414285Y-63612619D02*
X66652380Y-63612619D01*
X66652380Y-63612619D02*
X66747618Y-63565000D01*
X66747618Y-63565000D02*
X66795237Y-63469761D01*
X66795237Y-63469761D02*
X66795237Y-63374523D01*
X66795237Y-63374523D02*
X66747618Y-63279285D01*
X66747618Y-63279285D02*
X66652380Y-63231666D01*
X66652380Y-63231666D02*
X66414285Y-63231666D01*
X66414285Y-63231666D02*
X66319047Y-63184047D01*
X65414285Y-63612619D02*
X65414285Y-62612619D01*
X65414285Y-63565000D02*
X65509523Y-63612619D01*
X65509523Y-63612619D02*
X65699999Y-63612619D01*
X65699999Y-63612619D02*
X65795237Y-63565000D01*
X65795237Y-63565000D02*
X65842856Y-63517380D01*
X65842856Y-63517380D02*
X65890475Y-63422142D01*
X65890475Y-63422142D02*
X65890475Y-63136428D01*
X65890475Y-63136428D02*
X65842856Y-63041190D01*
X65842856Y-63041190D02*
X65795237Y-62993571D01*
X65795237Y-62993571D02*
X65699999Y-62945952D01*
X65699999Y-62945952D02*
X65509523Y-62945952D01*
X65509523Y-62945952D02*
X65414285Y-62993571D01*
X64938094Y-63612619D02*
X64938094Y-62945952D01*
X64938094Y-62612619D02*
X64985713Y-62660238D01*
X64985713Y-62660238D02*
X64938094Y-62707857D01*
X64938094Y-62707857D02*
X64890475Y-62660238D01*
X64890475Y-62660238D02*
X64938094Y-62612619D01*
X64938094Y-62612619D02*
X64938094Y-62707857D01*
X64033333Y-63612619D02*
X64033333Y-63088809D01*
X64033333Y-63088809D02*
X64080952Y-62993571D01*
X64080952Y-62993571D02*
X64176190Y-62945952D01*
X64176190Y-62945952D02*
X64366666Y-62945952D01*
X64366666Y-62945952D02*
X64461904Y-62993571D01*
X64033333Y-63565000D02*
X64128571Y-63612619D01*
X64128571Y-63612619D02*
X64366666Y-63612619D01*
X64366666Y-63612619D02*
X64461904Y-63565000D01*
X64461904Y-63565000D02*
X64509523Y-63469761D01*
X64509523Y-63469761D02*
X64509523Y-63374523D01*
X64509523Y-63374523D02*
X64461904Y-63279285D01*
X64461904Y-63279285D02*
X64366666Y-63231666D01*
X64366666Y-63231666D02*
X64128571Y-63231666D01*
X64128571Y-63231666D02*
X64033333Y-63184047D01*
X63414285Y-63612619D02*
X63509523Y-63565000D01*
X63509523Y-63565000D02*
X63557142Y-63469761D01*
X63557142Y-63469761D02*
X63557142Y-62612619D01*
X62271427Y-63231666D02*
X61509523Y-63231666D01*
X61890475Y-63612619D02*
X61890475Y-62850714D01*
X60319046Y-63565000D02*
X60176189Y-63612619D01*
X60176189Y-63612619D02*
X59938094Y-63612619D01*
X59938094Y-63612619D02*
X59842856Y-63565000D01*
X59842856Y-63565000D02*
X59795237Y-63517380D01*
X59795237Y-63517380D02*
X59747618Y-63422142D01*
X59747618Y-63422142D02*
X59747618Y-63326904D01*
X59747618Y-63326904D02*
X59795237Y-63231666D01*
X59795237Y-63231666D02*
X59842856Y-63184047D01*
X59842856Y-63184047D02*
X59938094Y-63136428D01*
X59938094Y-63136428D02*
X60128570Y-63088809D01*
X60128570Y-63088809D02*
X60223808Y-63041190D01*
X60223808Y-63041190D02*
X60271427Y-62993571D01*
X60271427Y-62993571D02*
X60319046Y-62898333D01*
X60319046Y-62898333D02*
X60319046Y-62803095D01*
X60319046Y-62803095D02*
X60271427Y-62707857D01*
X60271427Y-62707857D02*
X60223808Y-62660238D01*
X60223808Y-62660238D02*
X60128570Y-62612619D01*
X60128570Y-62612619D02*
X59890475Y-62612619D01*
X59890475Y-62612619D02*
X59747618Y-62660238D01*
X59319046Y-63612619D02*
X59319046Y-62612619D01*
X59319046Y-62612619D02*
X58985713Y-63326904D01*
X58985713Y-63326904D02*
X58652380Y-62612619D01*
X58652380Y-62612619D02*
X58652380Y-63612619D01*
X58176189Y-63612619D02*
X58176189Y-62612619D01*
X58176189Y-62612619D02*
X57938094Y-62612619D01*
X57938094Y-62612619D02*
X57795237Y-62660238D01*
X57795237Y-62660238D02*
X57699999Y-62755476D01*
X57699999Y-62755476D02*
X57652380Y-62850714D01*
X57652380Y-62850714D02*
X57604761Y-63041190D01*
X57604761Y-63041190D02*
X57604761Y-63184047D01*
X57604761Y-63184047D02*
X57652380Y-63374523D01*
X57652380Y-63374523D02*
X57699999Y-63469761D01*
X57699999Y-63469761D02*
X57795237Y-63565000D01*
X57795237Y-63565000D02*
X57938094Y-63612619D01*
X57938094Y-63612619D02*
X58176189Y-63612619D01*
%TO.C,M1*%
X54990000Y-52540000D02*
G75*
G03*
X54990000Y-52540000I-2450000J0D01*
G01*
%TO.C,M2*%
X75310000Y-52540000D02*
G75*
G03*
X75310000Y-52540000I-2450000J0D01*
G01*
%TO.C,M3*%
X75310000Y-67460000D02*
G75*
G03*
X75310000Y-67460000I-2450000J0D01*
G01*
%TO.C,M4*%
X54990000Y-67460000D02*
G75*
G03*
X54990000Y-67460000I-2450000J0D01*
G01*
%TD*%
M02*
