%TF.GenerationSoftware,KiCad,Pcbnew,5.1.7-a382d34a8~87~ubuntu18.04.1*%
%TF.CreationDate,2022-01-02T10:16:47-08:00*%
%TF.ProjectId,basic_led,62617369-635f-46c6-9564-2e6b69636164,rev?*%
%TF.SameCoordinates,Original*%
%TF.FileFunction,Copper,L1,Top*%
%TF.FilePolarity,Positive*%
%FSLAX46Y46*%
G04 Gerber Fmt 4.6, Leading zero omitted, Abs format (unit mm)*
G04 Created by KiCad (PCBNEW 5.1.7-a382d34a8~87~ubuntu18.04.1) date 2022-01-02 10:16:47*
%MOMM*%
%LPD*%
G01*
G04 APERTURE LIST*
%TA.AperFunction,SMDPad,CuDef*%
%ADD10R,3.000000X0.800000*%
%TD*%
%TA.AperFunction,SMDPad,CuDef*%
%ADD11R,1.600000X0.400000*%
%TD*%
%TA.AperFunction,ComponentPad*%
%ADD12C,3.570000*%
%TD*%
%TA.AperFunction,ViaPad*%
%ADD13C,0.800000*%
%TD*%
%TA.AperFunction,Conductor*%
%ADD14C,0.250000*%
%TD*%
G04 APERTURE END LIST*
D10*
%TO.P,J2,*%
%TO.N,*%
X73100000Y-57350000D03*
X73100000Y-62650000D03*
D11*
%TO.P,J2,4*%
%TO.N,/SCL*%
X70775000Y-58500000D03*
%TO.P,J2,3*%
%TO.N,/SDA*%
X70775000Y-59500000D03*
%TO.P,J2,2*%
%TO.N,/3V3*%
X70775000Y-60500000D03*
%TO.P,J2,1*%
%TO.N,GND*%
X70775000Y-61500000D03*
%TD*%
D10*
%TO.P,J1,*%
%TO.N,*%
X52300000Y-62650000D03*
X52300000Y-57350000D03*
D11*
%TO.P,J1,4*%
%TO.N,/SCL*%
X54625000Y-61500000D03*
%TO.P,J1,3*%
%TO.N,/SDA*%
X54625000Y-60500000D03*
%TO.P,J1,2*%
%TO.N,/3V3*%
X54625000Y-59500000D03*
%TO.P,J1,1*%
%TO.N,GND*%
X54625000Y-58500000D03*
%TD*%
D12*
%TO.P,M4,~*%
%TO.N,N/C*%
X52540000Y-67460000D03*
%TD*%
%TO.P,M3,~*%
%TO.N,N/C*%
X72860000Y-67460000D03*
%TD*%
%TO.P,M2,~*%
%TO.N,N/C*%
X72860000Y-52540000D03*
%TD*%
%TO.P,M1,~*%
%TO.N,N/C*%
X52540000Y-52540000D03*
%TD*%
%TO.P,D1,2*%
%TO.N,/3V3*%
%TA.AperFunction,SMDPad,CuDef*%
G36*
G01*
X62443750Y-60350000D02*
X62956250Y-60350000D01*
G75*
G02*
X63175000Y-60568750I0J-218750D01*
G01*
X63175000Y-61006250D01*
G75*
G02*
X62956250Y-61225000I-218750J0D01*
G01*
X62443750Y-61225000D01*
G75*
G02*
X62225000Y-61006250I0J218750D01*
G01*
X62225000Y-60568750D01*
G75*
G02*
X62443750Y-60350000I218750J0D01*
G01*
G37*
%TD.AperFunction*%
%TO.P,D1,1*%
%TO.N,Net-(D1-Pad1)*%
%TA.AperFunction,SMDPad,CuDef*%
G36*
G01*
X62443750Y-58775000D02*
X62956250Y-58775000D01*
G75*
G02*
X63175000Y-58993750I0J-218750D01*
G01*
X63175000Y-59431250D01*
G75*
G02*
X62956250Y-59650000I-218750J0D01*
G01*
X62443750Y-59650000D01*
G75*
G02*
X62225000Y-59431250I0J218750D01*
G01*
X62225000Y-58993750D01*
G75*
G02*
X62443750Y-58775000I218750J0D01*
G01*
G37*
%TD.AperFunction*%
%TD*%
%TO.P,R1,1*%
%TO.N,Net-(D1-Pad1)*%
%TA.AperFunction,SMDPad,CuDef*%
G36*
G01*
X63925000Y-53725000D02*
X63925000Y-54275000D01*
G75*
G02*
X63725000Y-54475000I-200000J0D01*
G01*
X63325000Y-54475000D01*
G75*
G02*
X63125000Y-54275000I0J200000D01*
G01*
X63125000Y-53725000D01*
G75*
G02*
X63325000Y-53525000I200000J0D01*
G01*
X63725000Y-53525000D01*
G75*
G02*
X63925000Y-53725000I0J-200000D01*
G01*
G37*
%TD.AperFunction*%
%TO.P,R1,2*%
%TO.N,GND*%
%TA.AperFunction,SMDPad,CuDef*%
G36*
G01*
X62275000Y-53725000D02*
X62275000Y-54275000D01*
G75*
G02*
X62075000Y-54475000I-200000J0D01*
G01*
X61675000Y-54475000D01*
G75*
G02*
X61475000Y-54275000I0J200000D01*
G01*
X61475000Y-53725000D01*
G75*
G02*
X61675000Y-53525000I200000J0D01*
G01*
X62075000Y-53525000D01*
G75*
G02*
X62275000Y-53725000I0J-200000D01*
G01*
G37*
%TD.AperFunction*%
%TD*%
D13*
%TO.N,GND*%
X62322600Y-55554500D03*
X69000000Y-61500000D03*
%TO.N,/SCL*%
X65487200Y-58416600D03*
X56500000Y-61500000D03*
%TO.N,/SDA*%
X58850000Y-60500000D03*
X66700000Y-59500000D03*
%TD*%
D14*
%TO.N,GND*%
X61875000Y-55231400D02*
X59018900Y-55231400D01*
X59018900Y-55231400D02*
X55750300Y-58500000D01*
X62322600Y-55554500D02*
X61999500Y-55231400D01*
X61999500Y-55231400D02*
X61875000Y-55231400D01*
X61875000Y-55231400D02*
X61875000Y-54000000D01*
X54625000Y-58500000D02*
X55750300Y-58500000D01*
X70775000Y-61500000D02*
X69649700Y-61500000D01*
X69649700Y-61500000D02*
X69000000Y-61500000D01*
%TO.N,Net-(D1-Pad1)*%
X63525000Y-54000000D02*
X63525000Y-58387500D01*
X63525000Y-58387500D02*
X62700000Y-59212500D01*
%TO.N,/3V3*%
X54625000Y-59500000D02*
X55750300Y-59500000D01*
X62700000Y-60704700D02*
X61846300Y-59851000D01*
X61846300Y-59851000D02*
X61846300Y-59511900D01*
X61846300Y-59511900D02*
X61421500Y-59087100D01*
X61421500Y-59087100D02*
X56163200Y-59087100D01*
X56163200Y-59087100D02*
X55750300Y-59500000D01*
X62700000Y-60787500D02*
X62700000Y-60704700D01*
X62700000Y-60704700D02*
X69445000Y-60704700D01*
X69445000Y-60704700D02*
X69649700Y-60500000D01*
X70775000Y-60500000D02*
X69649700Y-60500000D01*
%TO.N,/SCL*%
X54625000Y-61500000D02*
X55750300Y-61500000D01*
X70775000Y-58500000D02*
X65570600Y-58500000D01*
X65570600Y-58500000D02*
X65487200Y-58416600D01*
X55750300Y-61500000D02*
X56500000Y-61500000D01*
%TO.N,/SDA*%
X70775000Y-59500000D02*
X69649700Y-59500000D01*
X54625000Y-60500000D02*
X58850000Y-60500000D01*
X69649700Y-59500000D02*
X66700000Y-59500000D01*
%TD*%
M02*
