%TF.GenerationSoftware,KiCad,Pcbnew,5.1.7-a382d34a8~87~ubuntu18.04.1*%
%TF.CreationDate,2022-01-02T15:36:47-08:00*%
%TF.ProjectId,basic_led,62617369-635f-46c6-9564-2e6b69636164,rev?*%
%TF.SameCoordinates,Original*%
%TF.FileFunction,Paste,Top*%
%TF.FilePolarity,Positive*%
%FSLAX46Y46*%
G04 Gerber Fmt 4.6, Leading zero omitted, Abs format (unit mm)*
G04 Created by KiCad (PCBNEW 5.1.7-a382d34a8~87~ubuntu18.04.1) date 2022-01-02 15:36:47*
%MOMM*%
%LPD*%
G01*
G04 APERTURE LIST*
%ADD10R,3.000000X0.800000*%
%ADD11R,1.600000X0.400000*%
G04 APERTURE END LIST*
D10*
%TO.C,J2*%
X73100000Y-57350000D03*
X73100000Y-62650000D03*
D11*
X70775000Y-58500000D03*
X70775000Y-59500000D03*
X70775000Y-60500000D03*
X70775000Y-61500000D03*
%TD*%
D10*
%TO.C,J1*%
X52300000Y-62650000D03*
X52300000Y-57350000D03*
D11*
X54625000Y-61500000D03*
X54625000Y-60500000D03*
X54625000Y-59500000D03*
X54625000Y-58500000D03*
%TD*%
%TO.C,D1*%
G36*
G01*
X62443750Y-60350000D02*
X62956250Y-60350000D01*
G75*
G02*
X63175000Y-60568750I0J-218750D01*
G01*
X63175000Y-61006250D01*
G75*
G02*
X62956250Y-61225000I-218750J0D01*
G01*
X62443750Y-61225000D01*
G75*
G02*
X62225000Y-61006250I0J218750D01*
G01*
X62225000Y-60568750D01*
G75*
G02*
X62443750Y-60350000I218750J0D01*
G01*
G37*
G36*
G01*
X62443750Y-58775000D02*
X62956250Y-58775000D01*
G75*
G02*
X63175000Y-58993750I0J-218750D01*
G01*
X63175000Y-59431250D01*
G75*
G02*
X62956250Y-59650000I-218750J0D01*
G01*
X62443750Y-59650000D01*
G75*
G02*
X62225000Y-59431250I0J218750D01*
G01*
X62225000Y-58993750D01*
G75*
G02*
X62443750Y-58775000I218750J0D01*
G01*
G37*
%TD*%
%TO.C,R1*%
G36*
G01*
X63925000Y-53725000D02*
X63925000Y-54275000D01*
G75*
G02*
X63725000Y-54475000I-200000J0D01*
G01*
X63325000Y-54475000D01*
G75*
G02*
X63125000Y-54275000I0J200000D01*
G01*
X63125000Y-53725000D01*
G75*
G02*
X63325000Y-53525000I200000J0D01*
G01*
X63725000Y-53525000D01*
G75*
G02*
X63925000Y-53725000I0J-200000D01*
G01*
G37*
G36*
G01*
X62275000Y-53725000D02*
X62275000Y-54275000D01*
G75*
G02*
X62075000Y-54475000I-200000J0D01*
G01*
X61675000Y-54475000D01*
G75*
G02*
X61475000Y-54275000I0J200000D01*
G01*
X61475000Y-53725000D01*
G75*
G02*
X61675000Y-53525000I200000J0D01*
G01*
X62075000Y-53525000D01*
G75*
G02*
X62275000Y-53725000I0J-200000D01*
G01*
G37*
%TD*%
M02*
